<svg version="1.0" xmlns="http://www.w3.org/2000/svg" width="682.667" height="682.667" viewBox="0 0 512 512"><path d="M327.5 99.9c-8.5 2.4-14 5.8-18.1 11-3.3 4.3-3.5 5-3 9.7.5 4.1-.3 8.9-4 23.5-9.4 38.3-20.6 75.4-31.8 105.3l-7.4 19.8-4.5-8.3c-8.6-15.9-15.6-31.5-26.5-59.4-14.4-36.9-19.9-49.9-28.8-68.4-4.1-8.5-7.4-16-7.4-16.7 0-12.7-28.2-14.8-40.4-3.1-9.6 9.2-12.8 31.2-8.7 60.2 3.4 24.9 4.1 35.2 5.1 78.5.5 22.8 1.7 54.1 2.5 69.5.8 15.4 1.5 34.3 1.5 41.9 0 12.1-.3 14.5-2.1 18.3-1.7 3.6-1.9 4.8-1 7.6 1.1 3.3 7.9 10.6 11.6 12.5 9.4 4.6 28.5-.2 34.2-8.7 2.2-3.3 2.3-4.2 2.3-23.5 0-11.1-.9-40.8-2-66.1-1.1-25.3-2-51.2-2-57.5v-11.5l7.9 18.3c4.4 10.1 10.5 22.9 13.7 28.5 10.3 18 14.3 26.8 19.9 44 5.1 15.5 5.4 17 4.1 19.5-2.1 4-.9 7.7 3.3 10.6 5 3.5 11.2 4.2 19.2 2.2 8.9-2.3 15.9-5.7 20.7-10 4.4-4.1 5.7-7.2 4.2-11-.7-1.9-.3-4.2 1.6-9.8 1.3-3.9 4.3-15.8 6.5-26.2 4.1-19 8.3-33.9 13.8-49.1 3.4-9.4 3.4-9.5 5.2 10.8.9 9.7 1 25.6.6 53-.6 40.6.2 54.8 3.8 70.7 1.9 8.6 1.9 10.9-.5 14.5-2.7 4.1-2.5 7.7.6 10.6 2.2 2 3.8 2.4 10.5 2.8 14.6.6 26.9-5.2 32.1-15.3 4-7.8 3.7-16.7-1.4-43.1-2.4-12.8-2.8-27.5-1.4-65.5.7-22 .6-27-1.5-49.5-2-21.1-2.4-31.7-2.5-68-.1-41.3-.2-43.3-2.4-51-1.3-4.9-2.1-10.4-2-14.2.1-5.3-.2-6.3-2.2-7.7-3-2.2-15.4-2-23.3.3z"/></svg>